<svg width="58" height="65" viewBox="0 0 58 65" fill="none" xmlns="http://www.w3.org/2000/svg">
<path d="M10.3759 1.40601L53.1764 26.006C58.9629 29.306 58.9629 34.706 53.1764 38.006L10.3759 62.606C4.6891 65.906 0 63.206 0 56.506V7.50601C0 0.806 4.5894 -1.89401 10.3759 1.40601Z" fill="#00318F"/>
<path d="M18.0618 22.5309C18.0618 21.1331 16.9287 20 15.5309 20V20C14.1331 20 13 21.1331 13 22.5309V34.5C13 38.6421 16.3579 42 20.5 42H25.5744C26.914 42 28 40.914 28 39.5744V39.5744C28 38.2347 26.914 37.1487 25.5744 37.1487H23.0309C20.2865 37.1487 18.0618 34.924 18.0618 32.1796V22.5309Z" fill="white"/>
<path d="M22.2628 26.1538L27.4718 28.8439C28.1761 29.2047 28.1761 29.7953 27.4718 30.1561L22.2628 32.8462C21.5707 33.2071 21 32.9119 21 32.1792V26.8208C21 26.0881 21.5586 25.7929 22.2628 26.1538Z" fill="white"/>
</svg>
